<svg width="200" height="204" viewBox="0 0 200 204" fill="none" xmlns="http://www.w3.org/2000/svg">
<g filter="url(#filter0_d_107_2400)">
<path d="M89.3686 17.5477C93.2026 13.7383 99.3928 13.7383 103.227 17.5477V17.5477C106.305 20.6062 111.025 21.2848 114.84 19.2174V19.2174C119.592 16.6425 125.531 18.3865 128.137 23.1218V23.1218C130.229 26.9236 134.566 28.9043 138.809 27.9956V27.9956C144.094 26.8637 149.301 30.2104 150.467 35.488V35.488C151.403 39.7251 155.007 42.8475 159.334 43.171V43.171C164.724 43.5739 168.777 48.2522 168.409 53.6444V53.6444C168.114 57.9737 170.691 61.9847 174.752 63.5143V63.5143C179.81 65.4194 182.382 71.0502 180.509 76.1203V76.1203C179.006 80.1909 180.349 84.7657 183.815 87.3774V87.3774C188.131 90.6303 189.012 96.7575 185.787 101.095V101.095C183.198 104.577 183.198 109.345 185.787 112.827V112.827C189.012 117.164 188.131 123.291 183.815 126.544V126.544C180.349 129.156 179.006 133.731 180.509 137.801V137.801C182.382 142.871 179.81 148.502 174.752 150.407V150.407C170.691 151.937 168.114 155.948 168.409 160.277V160.277C168.777 165.669 164.724 170.348 159.334 170.751V170.751C155.007 171.074 151.403 174.197 150.467 178.434V178.434C149.301 183.711 144.094 187.058 138.809 185.926V185.926C134.566 185.017 130.229 186.998 128.137 190.8V190.8C125.531 195.535 119.592 197.279 114.84 194.704V194.704C111.025 192.637 106.305 193.315 103.227 196.374V196.374C99.3928 200.183 93.2026 200.183 89.3686 196.374V196.374C86.2903 193.315 81.5709 192.637 77.7557 194.704V194.704C73.0036 197.279 67.0642 195.535 64.4587 190.8V190.8C62.3668 186.998 58.0297 185.017 53.7866 185.926V185.926C48.5016 187.058 43.2941 183.711 42.1282 178.434V178.434C41.1921 174.197 37.5888 171.074 33.2615 170.751V170.751C27.8717 170.348 23.818 165.669 24.1862 160.277V160.277C24.4818 155.948 21.9041 151.937 17.8432 150.407V150.407C12.7853 148.502 10.2138 142.871 12.0863 137.801V137.801C13.5896 133.731 12.2463 129.156 8.78088 126.544V126.544C4.46456 123.291 3.5836 117.164 6.80863 112.827V112.827C9.39789 109.345 9.39789 104.577 6.80863 101.095V101.095C3.5836 96.7575 4.46456 90.6303 8.78088 87.3774V87.3774C12.2463 84.7657 13.5896 80.1909 12.0863 76.1203V76.1203C10.2138 71.0502 12.7853 65.4194 17.8432 63.5143V63.5143C21.9041 61.9847 24.4818 57.9737 24.1862 53.6444V53.6444C23.818 48.2522 27.8717 43.5739 33.2615 43.171V43.171C37.5888 42.8475 41.1921 39.7251 42.1282 35.488V35.488C43.2941 30.2104 48.5016 26.8637 53.7866 27.9956V27.9956C58.0297 28.9043 62.3668 26.9236 64.4587 23.1218V23.1218C67.0642 18.3865 73.0036 16.6425 77.7557 19.2174V19.2174C81.5709 21.2848 86.2903 20.6062 89.3686 17.5477V17.5477Z" fill="white"/>
</g>
<path d="M77.9512 118.521C79.884 118.11 81.0248 118.725 81.3736 120.366C81.6527 121.679 81.4818 122.668 80.861 123.334C80.2401 123.999 79.1456 124.499 77.5775 124.832L76.4288 125.076L76.8262 128.022C77.0734 129.722 76.949 130.93 76.4531 131.646C75.9936 132.353 75.0893 132.85 73.74 133.137C71.8072 133.548 70.5889 132.568 70.085 130.198C69.9997 129.797 69.9521 129.483 69.9421 129.256L69.6458 126.518C64.358 127.642 60.3427 128.476 57.5999 129.021C56.7976 129.192 56.009 128.978 55.234 128.38C54.459 127.783 53.9475 126.901 53.6994 125.734C53.5522 125.041 53.5248 124.284 53.6173 123.464C54.2297 118.455 55.5087 112.638 57.4544 106.011C57.8759 104.588 58.3789 103.547 58.9633 102.889C59.5764 102.187 60.6305 101.677 62.1257 101.359C62.928 101.189 63.5684 101.243 64.0471 101.523C64.5622 101.794 64.8818 102.222 65.0058 102.805C65.1376 103.425 65.087 104.084 64.8541 104.781C62.6678 112.069 61.2716 117.873 60.6656 122.195L69.0896 120.404C68.8063 116.92 68.722 113.564 68.8367 110.338C68.8882 109.146 69.1801 108.188 69.7125 107.465C70.2371 106.706 71.0829 106.202 72.2499 105.954C74.1098 105.558 75.2102 106.163 75.5513 107.768C75.652 108.242 75.6931 108.614 75.6744 108.885C75.6769 112.124 75.7794 115.476 75.982 118.939L77.9512 118.521ZM98.9039 127.217C95.33 127.976 92.3105 127.399 89.8451 125.483C87.4162 123.56 85.7406 120.429 84.8182 116.089C84.0353 112.406 83.9106 109.04 84.4443 105.992C85.0066 102.899 86.1422 100.352 87.8511 98.3497C89.5965 96.3397 91.8367 95.0441 94.5717 94.4627C98.1456 93.7031 101.147 94.2848 103.576 96.2079C106.041 98.1233 107.735 101.251 108.657 105.59C109.44 109.274 109.551 112.662 108.988 115.754C108.455 118.802 107.315 121.331 105.57 123.341C103.861 125.344 101.639 126.635 98.9039 127.217ZM98.1486 120.974C100.118 120.555 101.435 119.132 102.101 116.703C102.766 114.275 102.7 111.183 101.901 107.427C101.366 104.91 100.54 103.085 99.4222 101.95C98.2966 100.779 96.9316 100.364 95.327 100.706C93.3577 101.124 92.0443 102.566 91.3866 105.031C90.7212 107.459 90.7877 110.551 91.5861 114.307C92.1209 116.824 92.929 118.653 94.0104 119.795C95.1282 120.93 96.5076 121.323 98.1486 120.974ZM139.223 105.497C141.156 105.086 142.297 105.701 142.646 107.342C142.925 108.655 142.754 109.644 142.133 110.31C141.512 110.975 140.418 111.475 138.85 111.808L137.701 112.052L138.098 114.998C138.345 116.699 138.221 117.907 137.725 118.622C137.266 119.329 136.361 119.827 135.012 120.113C133.079 120.524 131.861 119.544 131.357 117.174C131.272 116.773 131.224 116.459 131.214 116.233L130.918 113.494C125.63 114.618 121.615 115.452 118.872 115.997C118.07 116.168 117.281 115.954 116.506 115.357C115.731 114.759 115.22 113.877 114.971 112.71C114.824 112.017 114.797 111.261 114.889 110.44C115.502 105.432 116.781 99.6139 118.726 92.9875C119.148 91.5639 119.651 90.5232 120.235 89.8653C120.848 89.1633 121.903 88.6534 123.398 88.3356C124.2 88.165 124.84 88.2195 125.319 88.4989C125.834 88.7705 126.154 89.1981 126.278 89.7816C126.41 90.4015 126.359 91.0603 126.126 91.7577C123.94 99.0451 122.544 104.849 121.938 109.171L130.362 107.38C130.078 103.896 129.994 100.541 130.109 97.3146C130.16 96.122 130.452 95.1643 130.985 94.4413C131.509 93.6818 132.355 93.178 133.522 92.93C135.382 92.5347 136.482 93.1393 136.823 94.7439C136.924 95.218 136.965 95.5904 136.946 95.8612C136.949 99.1004 137.051 102.452 137.254 105.915L139.223 105.497Z" fill="#F07888"/>
<circle cx="94.987" cy="106.779" r="82.5409" stroke="#FFA6C2" stroke-width="1.31017" stroke-linecap="round" stroke-dasharray="5.24 15.72"/>
<defs>
<filter id="filter0_d_107_2400" x="-29.4921" y="-14.3812" width="251.578" height="253.256" filterUnits="userSpaceOnUse" color-interpolation-filters="sRGB">
<feFlood flood-opacity="0" result="BackgroundImageFix"/>
<feColorMatrix in="SourceAlpha" type="matrix" values="0 0 0 0 0 0 0 0 0 0 0 0 0 0 0 0 0 0 127 0" result="hardAlpha"/>
<feOffset dy="5.28574"/>
<feGaussianBlur stdDeviation="17.1787"/>
<feComposite in2="hardAlpha" operator="out"/>
<feColorMatrix type="matrix" values="0 0 0 0 0 0 0 0 0 0 0 0 0 0 0 0 0 0 0.1 0"/>
<feBlend mode="normal" in2="BackgroundImageFix" result="effect1_dropShadow_107_2400"/>
<feBlend mode="normal" in="SourceGraphic" in2="effect1_dropShadow_107_2400" result="shape"/>
</filter>
</defs>
</svg>
